<svg width="1041" height="800" viewBox="0 0 1041 800" fill="none" xmlns="http://www.w3.org/2000/svg">
<rect x="1010.13" y="60" width="20" height="20" transform="rotate(90 1010.13 60)" fill="#E2E9FE"/>
<rect x="1010.13" y="360" width="20" height="20" transform="rotate(90 1010.13 360)" fill="#E2E9FE"/>
<rect x="1010.13" y="660" width="20" height="20" transform="rotate(90 1010.13 660)" fill="#E2E9FE"/>
<rect x="1010.13" y="30" width="20" height="20" transform="rotate(90 1010.13 30)" fill="#E2E9FE"/>
<rect x="1010.13" y="330" width="20" height="20" transform="rotate(90 1010.13 330)" fill="#E2E9FE"/>
<rect x="1010.13" y="630" width="20" height="20" transform="rotate(90 1010.13 630)" fill="#E2E9FE"/>
<rect x="1010.13" width="20" height="20" transform="rotate(90 1010.13 0)" fill="#E2E9FE"/>
<rect x="1010.13" y="300" width="20" height="20" transform="rotate(90 1010.13 300)" fill="#E2E9FE"/>
<rect x="1010.13" y="600" width="20" height="20" transform="rotate(90 1010.13 600)" fill="#E2E9FE"/>
<rect x="1010.13" y="270" width="20" height="20" transform="rotate(90 1010.13 270)" fill="#E2E9FE"/>
<rect x="1010.13" y="570" width="20" height="20" transform="rotate(90 1010.13 570)" fill="#E2E9FE"/>
<rect x="1010.13" y="240" width="20" height="20" transform="rotate(90 1010.13 240)" fill="#E2E9FE"/>
<rect x="1010.13" y="540" width="20" height="20" transform="rotate(90 1010.13 540)" fill="#E2E9FE"/>
<rect x="1010.13" y="210" width="20" height="20" transform="rotate(90 1010.13 210)" fill="#E2E9FE"/>
<rect x="1010.13" y="510" width="20" height="20" transform="rotate(90 1010.13 510)" fill="#E2E9FE"/>
<rect x="1010.13" y="180" width="20" height="20" transform="rotate(90 1010.13 180)" fill="#E2E9FE"/>
<rect x="1010.13" y="480" width="20" height="20" transform="rotate(90 1010.13 480)" fill="#E2E9FE"/>
<rect x="1010.13" y="780" width="20" height="20" transform="rotate(90 1010.13 780)" fill="#E2E9FE"/>
<rect x="1010.13" y="150" width="20" height="20" transform="rotate(90 1010.13 150)" fill="#E2E9FE"/>
<rect x="1010.13" y="450" width="20" height="20" transform="rotate(90 1010.13 450)" fill="#E2E9FE"/>
<rect x="1010.13" y="750" width="20" height="20" transform="rotate(90 1010.13 750)" fill="#E2E9FE"/>
<rect x="1010.13" y="120" width="20" height="20" transform="rotate(90 1010.13 120)" fill="#E2E9FE"/>
<rect x="1010.13" y="420" width="20" height="20" transform="rotate(90 1010.13 420)" fill="#E2E9FE"/>
<rect x="1010.13" y="720" width="20" height="20" transform="rotate(90 1010.13 720)" fill="#E2E9FE"/>
<rect x="1010.13" y="90" width="20" height="20" transform="rotate(90 1010.13 90)" fill="#E2E9FE"/>
<rect x="1010.13" y="390" width="20" height="20" transform="rotate(90 1010.13 390)" fill="#E2E9FE"/>
<rect x="1010.13" y="690" width="20" height="20" transform="rotate(90 1010.13 690)" fill="#E2E9FE"/>
<rect x="980.133" y="60" width="20" height="20" transform="rotate(90 980.133 60)" fill="#E2E9FE"/>
<rect x="980.133" y="360" width="20" height="20" transform="rotate(90 980.133 360)" fill="#E2E9FE"/>
<rect x="980.133" y="660" width="20" height="20" transform="rotate(90 980.133 660)" fill="#E2E9FE"/>
<rect x="980.133" y="30" width="20" height="20" transform="rotate(90 980.133 30)" fill="#E2E9FE"/>
<rect x="980.133" y="330" width="20" height="20" transform="rotate(90 980.133 330)" fill="#E2E9FE"/>
<rect x="980.133" y="630" width="20" height="20" transform="rotate(90 980.133 630)" fill="#E2E9FE"/>
<rect x="980.133" width="20" height="20" transform="rotate(90 980.133 0)" fill="#E2E9FE"/>
<rect x="980.133" y="300" width="20" height="20" transform="rotate(90 980.133 300)" fill="#E2E9FE"/>
<rect x="980.133" y="600" width="20" height="20" transform="rotate(90 980.133 600)" fill="#E2E9FE"/>
<rect x="980.133" y="270" width="20" height="20" transform="rotate(90 980.133 270)" fill="#E2E9FE"/>
<rect x="980.133" y="570" width="20" height="20" transform="rotate(90 980.133 570)" fill="#E2E9FE"/>
<rect x="980.133" y="240" width="20" height="20" transform="rotate(90 980.133 240)" fill="#E2E9FE"/>
<rect x="980.133" y="540" width="20" height="20" transform="rotate(90 980.133 540)" fill="#E2E9FE"/>
<rect x="980.133" y="210" width="20" height="20" transform="rotate(90 980.133 210)" fill="#E2E9FE"/>
<rect x="980.133" y="510" width="20" height="20" transform="rotate(90 980.133 510)" fill="#E2E9FE"/>
<rect x="980.133" y="180" width="20" height="20" transform="rotate(90 980.133 180)" fill="#E2E9FE"/>
<rect x="980.133" y="480" width="20" height="20" transform="rotate(90 980.133 480)" fill="#E2E9FE"/>
<rect x="980.133" y="780" width="20" height="20" transform="rotate(90 980.133 780)" fill="#E2E9FE"/>
<rect x="980.133" y="150" width="20" height="20" transform="rotate(90 980.133 150)" fill="#E2E9FE"/>
<rect x="980.133" y="450" width="20" height="20" transform="rotate(90 980.133 450)" fill="#E2E9FE"/>
<rect x="980.133" y="750" width="20" height="20" transform="rotate(90 980.133 750)" fill="#E2E9FE"/>
<rect x="980.133" y="120" width="20" height="20" transform="rotate(90 980.133 120)" fill="#E2E9FE"/>
<rect x="980.133" y="420" width="20" height="20" transform="rotate(90 980.133 420)" fill="#E2E9FE"/>
<rect x="980.133" y="720" width="20" height="20" transform="rotate(90 980.133 720)" fill="#E2E9FE"/>
<rect x="980.133" y="90" width="20" height="20" transform="rotate(90 980.133 90)" fill="#E2E9FE"/>
<rect x="980.133" y="390" width="20" height="20" transform="rotate(90 980.133 390)" fill="#E2E9FE"/>
<rect x="980.133" y="690" width="20" height="20" transform="rotate(90 980.133 690)" fill="#E2E9FE"/>
<rect x="950.133" y="60" width="20" height="20" transform="rotate(90 950.133 60)" fill="#E2E9FE"/>
<rect x="950.133" y="360" width="20" height="20" transform="rotate(90 950.133 360)" fill="#E2E9FE"/>
<rect x="950.133" y="660" width="20" height="20" transform="rotate(90 950.133 660)" fill="#E2E9FE"/>
<rect x="950.133" y="30" width="20" height="20" transform="rotate(90 950.133 30)" fill="#E2E9FE"/>
<rect x="950.133" y="330" width="20" height="20" transform="rotate(90 950.133 330)" fill="#E2E9FE"/>
<rect x="950.133" y="630" width="20" height="20" transform="rotate(90 950.133 630)" fill="#E2E9FE"/>
<rect x="950.133" width="20" height="20" transform="rotate(90 950.133 0)" fill="#E2E9FE"/>
<rect x="950.133" y="300" width="20" height="20" transform="rotate(90 950.133 300)" fill="#E2E9FE"/>
<rect x="950.133" y="600" width="20" height="20" transform="rotate(90 950.133 600)" fill="#E2E9FE"/>
<rect x="950.133" y="270" width="20" height="20" transform="rotate(90 950.133 270)" fill="#E2E9FE"/>
<rect x="950.133" y="570" width="20" height="20" transform="rotate(90 950.133 570)" fill="#E2E9FE"/>
<rect x="950.133" y="240" width="20" height="20" transform="rotate(90 950.133 240)" fill="#E2E9FE"/>
<rect x="950.133" y="540" width="20" height="20" transform="rotate(90 950.133 540)" fill="#E2E9FE"/>
<rect x="950.133" y="210" width="20" height="20" transform="rotate(90 950.133 210)" fill="#E2E9FE"/>
<rect x="950.133" y="510" width="20" height="20" transform="rotate(90 950.133 510)" fill="#E2E9FE"/>
<rect x="950.133" y="180" width="20" height="20" transform="rotate(90 950.133 180)" fill="#E2E9FE"/>
<rect x="950.133" y="480" width="20" height="20" transform="rotate(90 950.133 480)" fill="#E2E9FE"/>
<rect x="950.133" y="780" width="20" height="20" transform="rotate(90 950.133 780)" fill="#E2E9FE"/>
<rect x="950.133" y="150" width="20" height="20" transform="rotate(90 950.133 150)" fill="#E2E9FE"/>
<rect x="950.133" y="450" width="20" height="20" transform="rotate(90 950.133 450)" fill="#E2E9FE"/>
<rect x="950.133" y="750" width="20" height="20" transform="rotate(90 950.133 750)" fill="#E2E9FE"/>
<rect x="950.133" y="120" width="20" height="20" transform="rotate(90 950.133 120)" fill="#E2E9FE"/>
<rect x="950.133" y="420" width="20" height="20" transform="rotate(90 950.133 420)" fill="#E2E9FE"/>
<rect x="950.133" y="720" width="20" height="20" transform="rotate(90 950.133 720)" fill="#E2E9FE"/>
<rect x="950.133" y="90" width="20" height="20" transform="rotate(90 950.133 90)" fill="#E2E9FE"/>
<rect x="950.133" y="390" width="20" height="20" transform="rotate(90 950.133 390)" fill="#E2E9FE"/>
<rect x="950.133" y="690" width="20" height="20" transform="rotate(90 950.133 690)" fill="#E2E9FE"/>
<rect x="1040.13" y="60" width="20" height="20" transform="rotate(90 1040.13 60)" fill="#E2E9FE"/>
<rect x="1040.13" y="360" width="20" height="20" transform="rotate(90 1040.13 360)" fill="#E2E9FE"/>
<rect x="1040.13" y="660" width="20" height="20" transform="rotate(90 1040.13 660)" fill="#E2E9FE"/>
<rect x="1040.13" y="30" width="20" height="20" transform="rotate(90 1040.13 30)" fill="#E2E9FE"/>
<rect x="1040.13" y="330" width="20" height="20" transform="rotate(90 1040.13 330)" fill="#E2E9FE"/>
<rect x="1040.13" y="630" width="20" height="20" transform="rotate(90 1040.13 630)" fill="#E2E9FE"/>
<rect x="1040.13" width="20" height="20" transform="rotate(90 1040.13 0)" fill="#E2E9FE"/>
<rect x="1040.13" y="300" width="20" height="20" transform="rotate(90 1040.13 300)" fill="#E2E9FE"/>
<rect x="1040.13" y="600" width="20" height="20" transform="rotate(90 1040.13 600)" fill="#E2E9FE"/>
<rect x="1040.13" y="270" width="20" height="20" transform="rotate(90 1040.13 270)" fill="#E2E9FE"/>
<rect x="1040.13" y="570" width="20" height="20" transform="rotate(90 1040.13 570)" fill="#E2E9FE"/>
<rect x="1040.13" y="240" width="20" height="20" transform="rotate(90 1040.13 240)" fill="#E2E9FE"/>
<rect x="1040.13" y="540" width="20" height="20" transform="rotate(90 1040.13 540)" fill="#E2E9FE"/>
<rect x="1040.13" y="210" width="20" height="20" transform="rotate(90 1040.13 210)" fill="#E2E9FE"/>
<rect x="1040.13" y="510" width="20" height="20" transform="rotate(90 1040.13 510)" fill="#E2E9FE"/>
<rect x="1040.13" y="180" width="20" height="20" transform="rotate(90 1040.13 180)" fill="#E2E9FE"/>
<rect x="1040.13" y="480" width="20" height="20" transform="rotate(90 1040.13 480)" fill="#E2E9FE"/>
<rect x="1040.13" y="780" width="20" height="20" transform="rotate(90 1040.13 780)" fill="#E2E9FE"/>
<rect x="1040.13" y="150" width="20" height="20" transform="rotate(90 1040.13 150)" fill="#E2E9FE"/>
<rect x="1040.13" y="450" width="20" height="20" transform="rotate(90 1040.13 450)" fill="#E2E9FE"/>
<rect x="1040.13" y="750" width="20" height="20" transform="rotate(90 1040.13 750)" fill="#E2E9FE"/>
<rect x="1040.13" y="120" width="20" height="20" transform="rotate(90 1040.13 120)" fill="#E2E9FE"/>
<rect x="1040.13" y="420" width="20" height="20" transform="rotate(90 1040.13 420)" fill="#E2E9FE"/>
<rect x="1040.13" y="720" width="20" height="20" transform="rotate(90 1040.13 720)" fill="#E2E9FE"/>
<rect x="1040.13" y="90" width="20" height="20" transform="rotate(90 1040.13 90)" fill="#E2E9FE"/>
<rect x="1040.13" y="390" width="20" height="20" transform="rotate(90 1040.13 390)" fill="#E2E9FE"/>
<rect x="1040.13" y="690" width="20" height="20" transform="rotate(90 1040.13 690)" fill="#E2E9FE"/>
<rect x="110.133" y="750" width="20" height="20" transform="rotate(-180 110.133 750)" fill="#E2E9FE"/>
<rect x="140.133" y="750" width="20" height="20" transform="rotate(-180 140.133 750)" fill="#E2E9FE"/>
<rect x="170.133" y="750" width="20" height="20" transform="rotate(-180 170.133 750)" fill="#E2E9FE"/>
<rect x="200.133" y="750" width="20" height="20" transform="rotate(-180 200.133 750)" fill="#E2E9FE"/>
<rect x="230.133" y="750" width="20" height="20" transform="rotate(-180 230.133 750)" fill="#E2E9FE"/>
<rect x="20.1328" y="750" width="20" height="20" transform="rotate(-180 20.1328 750)" fill="#E2E9FE"/>
<rect x="50.1328" y="750" width="20" height="20" transform="rotate(-180 50.1328 750)" fill="#E2E9FE"/>
<rect x="80.1328" y="750" width="20" height="20" transform="rotate(-180 80.1328 750)" fill="#E2E9FE"/>
<rect x="110.133" y="660" width="20" height="20" transform="rotate(-180 110.133 660)" fill="#E2E9FE"/>
<rect x="140.133" y="660" width="20" height="20" transform="rotate(-180 140.133 660)" fill="#E2E9FE"/>
<rect x="170.133" y="660" width="20" height="20" transform="rotate(-180 170.133 660)" fill="#E2E9FE"/>
<rect x="200.133" y="660" width="20" height="20" transform="rotate(-180 200.133 660)" fill="#E2E9FE"/>
<rect x="230.133" y="660" width="20" height="20" transform="rotate(-180 230.133 660)" fill="#E2E9FE"/>
<rect x="20.1328" y="660" width="20" height="20" transform="rotate(-180 20.1328 660)" fill="#E2E9FE"/>
<rect x="50.1328" y="660" width="20" height="20" transform="rotate(-180 50.1328 660)" fill="#E2E9FE"/>
<rect x="80.1328" y="660" width="20" height="20" transform="rotate(-180 80.1328 660)" fill="#E2E9FE"/>
<rect x="110.133" y="720" width="20" height="20" transform="rotate(-180 110.133 720)" fill="#E2E9FE"/>
<rect x="140.133" y="720" width="20" height="20" transform="rotate(-180 140.133 720)" fill="#E2E9FE"/>
<rect x="170.133" y="720" width="20" height="20" transform="rotate(-180 170.133 720)" fill="#E2E9FE"/>
<rect x="200.133" y="720" width="20" height="20" transform="rotate(-180 200.133 720)" fill="#E2E9FE"/>
<rect x="230.133" y="720" width="20" height="20" transform="rotate(-180 230.133 720)" fill="#E2E9FE"/>
<rect x="20.1328" y="720" width="20" height="20" transform="rotate(-180 20.1328 720)" fill="#E2E9FE"/>
<rect x="50.1328" y="720" width="20" height="20" transform="rotate(-180 50.1328 720)" fill="#E2E9FE"/>
<rect x="80.1328" y="720" width="20" height="20" transform="rotate(-180 80.1328 720)" fill="#E2E9FE"/>
<rect x="110.133" y="690" width="20" height="20" transform="rotate(-180 110.133 690)" fill="#E2E9FE"/>
<rect x="140.133" y="690" width="20" height="20" transform="rotate(-180 140.133 690)" fill="#E2E9FE"/>
<rect x="170.133" y="690" width="20" height="20" transform="rotate(-180 170.133 690)" fill="#E2E9FE"/>
<rect x="200.133" y="690" width="20" height="20" transform="rotate(-180 200.133 690)" fill="#E2E9FE"/>
<rect x="230.133" y="690" width="20" height="20" transform="rotate(-180 230.133 690)" fill="#E2E9FE"/>
<rect x="20.1328" y="690" width="20" height="20" transform="rotate(-180 20.1328 690)" fill="#E2E9FE"/>
<rect x="50.1328" y="690" width="20" height="20" transform="rotate(-180 50.1328 690)" fill="#E2E9FE"/>
<rect x="80.1328" y="690" width="20" height="20" transform="rotate(-180 80.1328 690)" fill="#E2E9FE"/>
<rect x="110.133" y="780" width="20" height="20" transform="rotate(-180 110.133 780)" fill="#E2E9FE"/>
<rect x="140.133" y="780" width="20" height="20" transform="rotate(-180 140.133 780)" fill="#E2E9FE"/>
<rect x="170.133" y="780" width="20" height="20" transform="rotate(-180 170.133 780)" fill="#E2E9FE"/>
<rect x="200.133" y="780" width="20" height="20" transform="rotate(-180 200.133 780)" fill="#E2E9FE"/>
<rect x="230.133" y="780" width="20" height="20" transform="rotate(-180 230.133 780)" fill="#E2E9FE"/>
<rect x="20.1328" y="780" width="20" height="20" transform="rotate(-180 20.1328 780)" fill="#E2E9FE"/>
<rect x="50.1328" y="780" width="20" height="20" transform="rotate(-180 50.1328 780)" fill="#E2E9FE"/>
<rect x="80.1328" y="780" width="20" height="20" transform="rotate(-180 80.1328 780)" fill="#E2E9FE"/>
</svg>
