<svg width="1129" height="800" viewBox="0 0 1129 800" fill="none" xmlns="http://www.w3.org/2000/svg">
<rect x="60.1328" y="180" width="20" height="20" fill="#E2E9FE"/>
<rect x="30.1328" y="180" width="20" height="20" fill="#E2E9FE"/>
<rect x="0.132812" y="180" width="20" height="20" fill="#E2E9FE"/>
<rect x="300.133" y="180" width="20" height="20" fill="#E2E9FE"/>
<rect x="270.133" y="180" width="20" height="20" fill="#E2E9FE"/>
<rect x="240.133" y="180" width="20" height="20" fill="#E2E9FE"/>
<rect x="210.133" y="180" width="20" height="20" fill="#E2E9FE"/>
<rect x="180.133" y="180" width="20" height="20" fill="#E2E9FE"/>
<rect x="150.133" y="180" width="20" height="20" fill="#E2E9FE"/>
<rect x="120.133" y="180" width="20" height="20" fill="#E2E9FE"/>
<rect x="90.1328" y="180" width="20" height="20" fill="#E2E9FE"/>
<rect x="60.1328" y="120" width="20" height="20" fill="#E2E9FE"/>
<rect x="30.1328" y="120" width="20" height="20" fill="#E2E9FE"/>
<rect x="0.132812" y="120" width="20" height="20" fill="#E2E9FE"/>
<rect x="300.133" y="120" width="20" height="20" fill="#E2E9FE"/>
<rect x="270.133" y="120" width="20" height="20" fill="#E2E9FE"/>
<rect x="240.133" y="120" width="20" height="20" fill="#E2E9FE"/>
<rect x="210.133" y="120" width="20" height="20" fill="#E2E9FE"/>
<rect x="180.133" y="120" width="20" height="20" fill="#E2E9FE"/>
<rect x="150.133" y="120" width="20" height="20" fill="#E2E9FE"/>
<rect x="120.133" y="120" width="20" height="20" fill="#E2E9FE"/>
<rect x="90.1328" y="120" width="20" height="20" fill="#E2E9FE"/>
<rect x="60.1328" y="150" width="20" height="20" fill="#E2E9FE"/>
<rect x="30.1328" y="150" width="20" height="20" fill="#E2E9FE"/>
<rect x="0.132812" y="150" width="20" height="20" fill="#E2E9FE"/>
<rect x="300.133" y="150" width="20" height="20" fill="#E2E9FE"/>
<rect x="270.133" y="150" width="20" height="20" fill="#E2E9FE"/>
<rect x="240.133" y="150" width="20" height="20" fill="#E2E9FE"/>
<rect x="210.133" y="150" width="20" height="20" fill="#E2E9FE"/>
<rect x="180.133" y="150" width="20" height="20" fill="#E2E9FE"/>
<rect x="150.133" y="150" width="20" height="20" fill="#E2E9FE"/>
<rect x="120.133" y="150" width="20" height="20" fill="#E2E9FE"/>
<rect x="90.1328" y="150" width="20" height="20" fill="#E2E9FE"/>
<rect x="1098.13" y="60" width="20" height="20" transform="rotate(90 1098.13 60)" fill="#E2E9FE"/>
<rect x="1098.13" y="360" width="20" height="20" transform="rotate(90 1098.13 360)" fill="#E2E9FE"/>
<rect x="1098.13" y="660" width="20" height="20" transform="rotate(90 1098.13 660)" fill="#E2E9FE"/>
<rect x="1098.13" y="30" width="20" height="20" transform="rotate(90 1098.13 30)" fill="#E2E9FE"/>
<rect x="1098.13" y="330" width="20" height="20" transform="rotate(90 1098.13 330)" fill="#E2E9FE"/>
<rect x="1098.13" y="630" width="20" height="20" transform="rotate(90 1098.13 630)" fill="#E2E9FE"/>
<rect x="1098.13" width="20" height="20" transform="rotate(90 1098.13 0)" fill="#E2E9FE"/>
<rect x="1098.13" y="300" width="20" height="20" transform="rotate(90 1098.13 300)" fill="#E2E9FE"/>
<rect x="1098.13" y="600" width="20" height="20" transform="rotate(90 1098.13 600)" fill="#E2E9FE"/>
<rect x="1098.13" y="270" width="20" height="20" transform="rotate(90 1098.13 270)" fill="#E2E9FE"/>
<rect x="1098.13" y="570" width="20" height="20" transform="rotate(90 1098.13 570)" fill="#E2E9FE"/>
<rect x="1098.13" y="240" width="20" height="20" transform="rotate(90 1098.13 240)" fill="#E2E9FE"/>
<rect x="1098.13" y="540" width="20" height="20" transform="rotate(90 1098.13 540)" fill="#E2E9FE"/>
<rect x="1098.13" y="210" width="20" height="20" transform="rotate(90 1098.13 210)" fill="#E2E9FE"/>
<rect x="1098.13" y="510" width="20" height="20" transform="rotate(90 1098.13 510)" fill="#E2E9FE"/>
<rect x="1098.13" y="180" width="20" height="20" transform="rotate(90 1098.13 180)" fill="#E2E9FE"/>
<rect x="1098.13" y="480" width="20" height="20" transform="rotate(90 1098.13 480)" fill="#E2E9FE"/>
<rect x="1098.13" y="780" width="20" height="20" transform="rotate(90 1098.13 780)" fill="#E2E9FE"/>
<rect x="1098.13" y="150" width="20" height="20" transform="rotate(90 1098.13 150)" fill="#E2E9FE"/>
<rect x="1098.13" y="450" width="20" height="20" transform="rotate(90 1098.13 450)" fill="#E2E9FE"/>
<rect x="1098.13" y="750" width="20" height="20" transform="rotate(90 1098.13 750)" fill="#E2E9FE"/>
<rect x="1098.13" y="120" width="20" height="20" transform="rotate(90 1098.13 120)" fill="#E2E9FE"/>
<rect x="1098.13" y="420" width="20" height="20" transform="rotate(90 1098.13 420)" fill="#E2E9FE"/>
<rect x="1098.13" y="720" width="20" height="20" transform="rotate(90 1098.13 720)" fill="#E2E9FE"/>
<rect x="1098.13" y="90" width="20" height="20" transform="rotate(90 1098.13 90)" fill="#E2E9FE"/>
<rect x="1098.13" y="390" width="20" height="20" transform="rotate(90 1098.13 390)" fill="#E2E9FE"/>
<rect x="1098.13" y="690" width="20" height="20" transform="rotate(90 1098.13 690)" fill="#E2E9FE"/>
<rect x="1068.13" y="60" width="20" height="20" transform="rotate(90 1068.13 60)" fill="#E2E9FE"/>
<rect x="1068.13" y="360" width="20" height="20" transform="rotate(90 1068.13 360)" fill="#E2E9FE"/>
<rect x="1068.13" y="660" width="20" height="20" transform="rotate(90 1068.13 660)" fill="#E2E9FE"/>
<rect x="1068.13" y="30" width="20" height="20" transform="rotate(90 1068.13 30)" fill="#E2E9FE"/>
<rect x="1068.13" y="330" width="20" height="20" transform="rotate(90 1068.13 330)" fill="#E2E9FE"/>
<rect x="1068.13" y="630" width="20" height="20" transform="rotate(90 1068.13 630)" fill="#E2E9FE"/>
<rect x="1068.13" width="20" height="20" transform="rotate(90 1068.13 0)" fill="#E2E9FE"/>
<rect x="1068.13" y="300" width="20" height="20" transform="rotate(90 1068.13 300)" fill="#E2E9FE"/>
<rect x="1068.13" y="600" width="20" height="20" transform="rotate(90 1068.13 600)" fill="#E2E9FE"/>
<rect x="1068.13" y="270" width="20" height="20" transform="rotate(90 1068.13 270)" fill="#E2E9FE"/>
<rect x="1068.13" y="570" width="20" height="20" transform="rotate(90 1068.13 570)" fill="#E2E9FE"/>
<rect x="1068.13" y="240" width="20" height="20" transform="rotate(90 1068.13 240)" fill="#E2E9FE"/>
<rect x="1068.13" y="540" width="20" height="20" transform="rotate(90 1068.13 540)" fill="#E2E9FE"/>
<rect x="1068.13" y="210" width="20" height="20" transform="rotate(90 1068.13 210)" fill="#E2E9FE"/>
<rect x="1068.13" y="510" width="20" height="20" transform="rotate(90 1068.13 510)" fill="#E2E9FE"/>
<rect x="1068.13" y="180" width="20" height="20" transform="rotate(90 1068.13 180)" fill="#E2E9FE"/>
<rect x="1068.13" y="480" width="20" height="20" transform="rotate(90 1068.13 480)" fill="#E2E9FE"/>
<rect x="1068.13" y="780" width="20" height="20" transform="rotate(90 1068.13 780)" fill="#E2E9FE"/>
<rect x="1068.13" y="150" width="20" height="20" transform="rotate(90 1068.13 150)" fill="#E2E9FE"/>
<rect x="1068.13" y="450" width="20" height="20" transform="rotate(90 1068.13 450)" fill="#E2E9FE"/>
<rect x="1068.13" y="750" width="20" height="20" transform="rotate(90 1068.13 750)" fill="#E2E9FE"/>
<rect x="1068.13" y="120" width="20" height="20" transform="rotate(90 1068.13 120)" fill="#E2E9FE"/>
<rect x="1068.13" y="420" width="20" height="20" transform="rotate(90 1068.13 420)" fill="#E2E9FE"/>
<rect x="1068.13" y="720" width="20" height="20" transform="rotate(90 1068.13 720)" fill="#E2E9FE"/>
<rect x="1068.13" y="90" width="20" height="20" transform="rotate(90 1068.13 90)" fill="#E2E9FE"/>
<rect x="1068.13" y="390" width="20" height="20" transform="rotate(90 1068.13 390)" fill="#E2E9FE"/>
<rect x="1068.13" y="690" width="20" height="20" transform="rotate(90 1068.13 690)" fill="#E2E9FE"/>
<rect x="1038.13" y="60" width="20" height="20" transform="rotate(90 1038.13 60)" fill="#E2E9FE"/>
<rect x="1038.13" y="360" width="20" height="20" transform="rotate(90 1038.13 360)" fill="#E2E9FE"/>
<rect x="1038.13" y="660" width="20" height="20" transform="rotate(90 1038.13 660)" fill="#E2E9FE"/>
<rect x="1038.13" y="30" width="20" height="20" transform="rotate(90 1038.13 30)" fill="#E2E9FE"/>
<rect x="1038.13" y="330" width="20" height="20" transform="rotate(90 1038.13 330)" fill="#E2E9FE"/>
<rect x="1038.13" y="630" width="20" height="20" transform="rotate(90 1038.13 630)" fill="#E2E9FE"/>
<rect x="1038.13" width="20" height="20" transform="rotate(90 1038.13 0)" fill="#E2E9FE"/>
<rect x="1038.13" y="300" width="20" height="20" transform="rotate(90 1038.13 300)" fill="#E2E9FE"/>
<rect x="1038.13" y="600" width="20" height="20" transform="rotate(90 1038.13 600)" fill="#E2E9FE"/>
<rect x="1038.13" y="270" width="20" height="20" transform="rotate(90 1038.13 270)" fill="#E2E9FE"/>
<rect x="1038.13" y="570" width="20" height="20" transform="rotate(90 1038.13 570)" fill="#E2E9FE"/>
<rect x="1038.13" y="240" width="20" height="20" transform="rotate(90 1038.13 240)" fill="#E2E9FE"/>
<rect x="1038.13" y="540" width="20" height="20" transform="rotate(90 1038.13 540)" fill="#E2E9FE"/>
<rect x="1038.13" y="210" width="20" height="20" transform="rotate(90 1038.13 210)" fill="#E2E9FE"/>
<rect x="1038.13" y="510" width="20" height="20" transform="rotate(90 1038.13 510)" fill="#E2E9FE"/>
<rect x="1038.13" y="180" width="20" height="20" transform="rotate(90 1038.13 180)" fill="#E2E9FE"/>
<rect x="1038.13" y="480" width="20" height="20" transform="rotate(90 1038.13 480)" fill="#E2E9FE"/>
<rect x="1038.13" y="780" width="20" height="20" transform="rotate(90 1038.13 780)" fill="#E2E9FE"/>
<rect x="1038.13" y="150" width="20" height="20" transform="rotate(90 1038.13 150)" fill="#E2E9FE"/>
<rect x="1038.13" y="450" width="20" height="20" transform="rotate(90 1038.13 450)" fill="#E2E9FE"/>
<rect x="1038.13" y="750" width="20" height="20" transform="rotate(90 1038.13 750)" fill="#E2E9FE"/>
<rect x="1038.13" y="120" width="20" height="20" transform="rotate(90 1038.13 120)" fill="#E2E9FE"/>
<rect x="1038.13" y="420" width="20" height="20" transform="rotate(90 1038.13 420)" fill="#E2E9FE"/>
<rect x="1038.13" y="720" width="20" height="20" transform="rotate(90 1038.13 720)" fill="#E2E9FE"/>
<rect x="1038.13" y="90" width="20" height="20" transform="rotate(90 1038.13 90)" fill="#E2E9FE"/>
<rect x="1038.13" y="390" width="20" height="20" transform="rotate(90 1038.13 390)" fill="#E2E9FE"/>
<rect x="1038.13" y="690" width="20" height="20" transform="rotate(90 1038.13 690)" fill="#E2E9FE"/>
<rect x="1128.13" y="60" width="20" height="20" transform="rotate(90 1128.13 60)" fill="#E2E9FE"/>
<rect x="1128.13" y="360" width="20" height="20" transform="rotate(90 1128.13 360)" fill="#E2E9FE"/>
<rect x="1128.13" y="660" width="20" height="20" transform="rotate(90 1128.13 660)" fill="#E2E9FE"/>
<rect x="1128.13" y="30" width="20" height="20" transform="rotate(90 1128.13 30)" fill="#E2E9FE"/>
<rect x="1128.13" y="330" width="20" height="20" transform="rotate(90 1128.13 330)" fill="#E2E9FE"/>
<rect x="1128.13" y="630" width="20" height="20" transform="rotate(90 1128.13 630)" fill="#E2E9FE"/>
<rect x="1128.13" width="20" height="20" transform="rotate(90 1128.13 0)" fill="#E2E9FE"/>
<rect x="1128.13" y="300" width="20" height="20" transform="rotate(90 1128.13 300)" fill="#E2E9FE"/>
<rect x="1128.13" y="600" width="20" height="20" transform="rotate(90 1128.13 600)" fill="#E2E9FE"/>
<rect x="1128.13" y="270" width="20" height="20" transform="rotate(90 1128.13 270)" fill="#E2E9FE"/>
<rect x="1128.13" y="570" width="20" height="20" transform="rotate(90 1128.13 570)" fill="#E2E9FE"/>
<rect x="1128.13" y="240" width="20" height="20" transform="rotate(90 1128.13 240)" fill="#E2E9FE"/>
<rect x="1128.13" y="540" width="20" height="20" transform="rotate(90 1128.13 540)" fill="#E2E9FE"/>
<rect x="1128.13" y="210" width="20" height="20" transform="rotate(90 1128.13 210)" fill="#E2E9FE"/>
<rect x="1128.13" y="510" width="20" height="20" transform="rotate(90 1128.13 510)" fill="#E2E9FE"/>
<rect x="1128.13" y="180" width="20" height="20" transform="rotate(90 1128.13 180)" fill="#E2E9FE"/>
<rect x="1128.13" y="480" width="20" height="20" transform="rotate(90 1128.13 480)" fill="#E2E9FE"/>
<rect x="1128.13" y="780" width="20" height="20" transform="rotate(90 1128.13 780)" fill="#E2E9FE"/>
<rect x="1128.13" y="150" width="20" height="20" transform="rotate(90 1128.13 150)" fill="#E2E9FE"/>
<rect x="1128.13" y="450" width="20" height="20" transform="rotate(90 1128.13 450)" fill="#E2E9FE"/>
<rect x="1128.13" y="750" width="20" height="20" transform="rotate(90 1128.13 750)" fill="#E2E9FE"/>
<rect x="1128.13" y="120" width="20" height="20" transform="rotate(90 1128.13 120)" fill="#E2E9FE"/>
<rect x="1128.13" y="420" width="20" height="20" transform="rotate(90 1128.13 420)" fill="#E2E9FE"/>
<rect x="1128.13" y="720" width="20" height="20" transform="rotate(90 1128.13 720)" fill="#E2E9FE"/>
<rect x="1128.13" y="90" width="20" height="20" transform="rotate(90 1128.13 90)" fill="#E2E9FE"/>
<rect x="1128.13" y="390" width="20" height="20" transform="rotate(90 1128.13 390)" fill="#E2E9FE"/>
<rect x="1128.13" y="690" width="20" height="20" transform="rotate(90 1128.13 690)" fill="#E2E9FE"/>
<rect x="198.133" y="750" width="20" height="20" transform="rotate(-180 198.133 750)" fill="#E2E9FE"/>
<rect x="228.133" y="750" width="20" height="20" transform="rotate(-180 228.133 750)" fill="#E2E9FE"/>
<rect x="258.133" y="750" width="20" height="20" transform="rotate(-180 258.133 750)" fill="#E2E9FE"/>
<rect x="288.133" y="750" width="20" height="20" transform="rotate(-180 288.133 750)" fill="#E2E9FE"/>
<rect x="318.133" y="750" width="20" height="20" transform="rotate(-180 318.133 750)" fill="#E2E9FE"/>
<rect x="108.133" y="750" width="20" height="20" transform="rotate(-180 108.133 750)" fill="#E2E9FE"/>
<rect x="138.133" y="750" width="20" height="20" transform="rotate(-180 138.133 750)" fill="#E2E9FE"/>
<rect x="168.133" y="750" width="20" height="20" transform="rotate(-180 168.133 750)" fill="#E2E9FE"/>
<rect x="198.133" y="660" width="20" height="20" transform="rotate(-180 198.133 660)" fill="#E2E9FE"/>
<rect x="228.133" y="660" width="20" height="20" transform="rotate(-180 228.133 660)" fill="#E2E9FE"/>
<rect x="258.133" y="660" width="20" height="20" transform="rotate(-180 258.133 660)" fill="#E2E9FE"/>
<rect x="288.133" y="660" width="20" height="20" transform="rotate(-180 288.133 660)" fill="#E2E9FE"/>
<rect x="318.133" y="660" width="20" height="20" transform="rotate(-180 318.133 660)" fill="#E2E9FE"/>
<rect x="108.133" y="660" width="20" height="20" transform="rotate(-180 108.133 660)" fill="#E2E9FE"/>
<rect x="138.133" y="660" width="20" height="20" transform="rotate(-180 138.133 660)" fill="#E2E9FE"/>
<rect x="168.133" y="660" width="20" height="20" transform="rotate(-180 168.133 660)" fill="#E2E9FE"/>
<rect x="198.133" y="720" width="20" height="20" transform="rotate(-180 198.133 720)" fill="#E2E9FE"/>
<rect x="228.133" y="720" width="20" height="20" transform="rotate(-180 228.133 720)" fill="#E2E9FE"/>
<rect x="258.133" y="720" width="20" height="20" transform="rotate(-180 258.133 720)" fill="#E2E9FE"/>
<rect x="288.133" y="720" width="20" height="20" transform="rotate(-180 288.133 720)" fill="#E2E9FE"/>
<rect x="318.133" y="720" width="20" height="20" transform="rotate(-180 318.133 720)" fill="#E2E9FE"/>
<rect x="108.133" y="720" width="20" height="20" transform="rotate(-180 108.133 720)" fill="#E2E9FE"/>
<rect x="138.133" y="720" width="20" height="20" transform="rotate(-180 138.133 720)" fill="#E2E9FE"/>
<rect x="168.133" y="720" width="20" height="20" transform="rotate(-180 168.133 720)" fill="#E2E9FE"/>
<rect x="198.133" y="690" width="20" height="20" transform="rotate(-180 198.133 690)" fill="#E2E9FE"/>
<rect x="228.133" y="690" width="20" height="20" transform="rotate(-180 228.133 690)" fill="#E2E9FE"/>
<rect x="258.133" y="690" width="20" height="20" transform="rotate(-180 258.133 690)" fill="#E2E9FE"/>
<rect x="288.133" y="690" width="20" height="20" transform="rotate(-180 288.133 690)" fill="#E2E9FE"/>
<rect x="318.133" y="690" width="20" height="20" transform="rotate(-180 318.133 690)" fill="#E2E9FE"/>
<rect x="108.133" y="690" width="20" height="20" transform="rotate(-180 108.133 690)" fill="#E2E9FE"/>
<rect x="138.133" y="690" width="20" height="20" transform="rotate(-180 138.133 690)" fill="#E2E9FE"/>
<rect x="168.133" y="690" width="20" height="20" transform="rotate(-180 168.133 690)" fill="#E2E9FE"/>
<rect x="198.133" y="780" width="20" height="20" transform="rotate(-180 198.133 780)" fill="#E2E9FE"/>
<rect x="228.133" y="780" width="20" height="20" transform="rotate(-180 228.133 780)" fill="#E2E9FE"/>
<rect x="258.133" y="780" width="20" height="20" transform="rotate(-180 258.133 780)" fill="#E2E9FE"/>
<rect x="288.133" y="780" width="20" height="20" transform="rotate(-180 288.133 780)" fill="#E2E9FE"/>
<rect x="318.133" y="780" width="20" height="20" transform="rotate(-180 318.133 780)" fill="#E2E9FE"/>
<rect x="108.133" y="780" width="20" height="20" transform="rotate(-180 108.133 780)" fill="#E2E9FE"/>
<rect x="138.133" y="780" width="20" height="20" transform="rotate(-180 138.133 780)" fill="#E2E9FE"/>
<rect x="168.133" y="780" width="20" height="20" transform="rotate(-180 168.133 780)" fill="#E2E9FE"/>
</svg>
