<svg width="798" height="632" viewBox="0 0 798 632" fill="none" xmlns="http://www.w3.org/2000/svg">
<rect x="58" y="30" width="20" height="20" fill="#E2E9FE"/>
<rect x="358" y="30" width="20" height="20" fill="#E2E9FE"/>
<rect x="658" y="30" width="20" height="20" fill="#E2E9FE"/>
<rect x="28" y="30" width="20" height="20" fill="#E2E9FE"/>
<rect x="328" y="30" width="20" height="20" fill="#E2E9FE"/>
<rect x="628" y="30" width="20" height="20" fill="#E2E9FE"/>
<rect x="-2" y="30" width="20" height="20" fill="#E2E9FE"/>
<rect x="298" y="30" width="20" height="20" fill="#E2E9FE"/>
<rect x="598" y="30" width="20" height="20" fill="#E2E9FE"/>
<rect x="268" y="30" width="20" height="20" fill="#E2E9FE"/>
<rect x="568" y="30" width="20" height="20" fill="#E2E9FE"/>
<rect x="238" y="30" width="20" height="20" fill="#E2E9FE"/>
<rect x="538" y="30" width="20" height="20" fill="#E2E9FE"/>
<rect x="208" y="30" width="20" height="20" fill="#E2E9FE"/>
<rect x="508" y="30" width="20" height="20" fill="#E2E9FE"/>
<rect x="178" y="30" width="20" height="20" fill="#E2E9FE"/>
<rect x="478" y="30" width="20" height="20" fill="#E2E9FE"/>
<rect x="778" y="30" width="20" height="20" fill="#E2E9FE"/>
<rect x="148" y="30" width="20" height="20" fill="#E2E9FE"/>
<rect x="448" y="30" width="20" height="20" fill="#E2E9FE"/>
<rect x="748" y="30" width="20" height="20" fill="#E2E9FE"/>
<rect x="118" y="30" width="20" height="20" fill="#E2E9FE"/>
<rect x="418" y="30" width="20" height="20" fill="#E2E9FE"/>
<rect x="718" y="30" width="20" height="20" fill="#E2E9FE"/>
<rect x="88" y="30" width="20" height="20" fill="#E2E9FE"/>
<rect x="388" y="30" width="20" height="20" fill="#E2E9FE"/>
<rect x="688" y="30" width="20" height="20" fill="#E2E9FE"/>
<rect x="58" y="60" width="20" height="20" fill="#E2E9FE"/>
<rect x="358" y="60" width="20" height="20" fill="#E2E9FE"/>
<rect x="658" y="60" width="20" height="20" fill="#E2E9FE"/>
<rect x="28" y="60" width="20" height="20" fill="#E2E9FE"/>
<rect x="328" y="60" width="20" height="20" fill="#E2E9FE"/>
<rect x="628" y="60" width="20" height="20" fill="#E2E9FE"/>
<rect x="-2" y="60" width="20" height="20" fill="#E2E9FE"/>
<rect x="298" y="60" width="20" height="20" fill="#E2E9FE"/>
<rect x="598" y="60" width="20" height="20" fill="#E2E9FE"/>
<rect x="268" y="60" width="20" height="20" fill="#E2E9FE"/>
<rect x="568" y="60" width="20" height="20" fill="#E2E9FE"/>
<rect x="238" y="60" width="20" height="20" fill="#E2E9FE"/>
<rect x="538" y="60" width="20" height="20" fill="#E2E9FE"/>
<rect x="208" y="60" width="20" height="20" fill="#E2E9FE"/>
<rect x="508" y="60" width="20" height="20" fill="#E2E9FE"/>
<rect x="178" y="60" width="20" height="20" fill="#E2E9FE"/>
<rect x="478" y="60" width="20" height="20" fill="#E2E9FE"/>
<rect x="778" y="60" width="20" height="20" fill="#E2E9FE"/>
<rect x="148" y="60" width="20" height="20" fill="#E2E9FE"/>
<rect x="448" y="60" width="20" height="20" fill="#E2E9FE"/>
<rect x="748" y="60" width="20" height="20" fill="#E2E9FE"/>
<rect x="118" y="60" width="20" height="20" fill="#E2E9FE"/>
<rect x="418" y="60" width="20" height="20" fill="#E2E9FE"/>
<rect x="718" y="60" width="20" height="20" fill="#E2E9FE"/>
<rect x="88" y="60" width="20" height="20" fill="#E2E9FE"/>
<rect x="388" y="60" width="20" height="20" fill="#E2E9FE"/>
<rect x="688" y="60" width="20" height="20" fill="#E2E9FE"/>
<rect x="58" y="90" width="20" height="20" fill="#E2E9FE"/>
<rect x="358" y="90" width="20" height="20" fill="#E2E9FE"/>
<rect x="658" y="90" width="20" height="20" fill="#E2E9FE"/>
<rect x="28" y="90" width="20" height="20" fill="#E2E9FE"/>
<rect x="328" y="90" width="20" height="20" fill="#E2E9FE"/>
<rect x="628" y="90" width="20" height="20" fill="#E2E9FE"/>
<rect x="-2" y="90" width="20" height="20" fill="#E2E9FE"/>
<rect x="298" y="90" width="20" height="20" fill="#E2E9FE"/>
<rect x="598" y="90" width="20" height="20" fill="#E2E9FE"/>
<rect x="268" y="90" width="20" height="20" fill="#E2E9FE"/>
<rect x="568" y="90" width="20" height="20" fill="#E2E9FE"/>
<rect x="238" y="90" width="20" height="20" fill="#E2E9FE"/>
<rect x="538" y="90" width="20" height="20" fill="#E2E9FE"/>
<rect x="208" y="90" width="20" height="20" fill="#E2E9FE"/>
<rect x="508" y="90" width="20" height="20" fill="#E2E9FE"/>
<rect x="178" y="90" width="20" height="20" fill="#E2E9FE"/>
<rect x="478" y="90" width="20" height="20" fill="#E2E9FE"/>
<rect x="778" y="90" width="20" height="20" fill="#E2E9FE"/>
<rect x="148" y="90" width="20" height="20" fill="#E2E9FE"/>
<rect x="448" y="90" width="20" height="20" fill="#E2E9FE"/>
<rect x="748" y="90" width="20" height="20" fill="#E2E9FE"/>
<rect x="118" y="90" width="20" height="20" fill="#E2E9FE"/>
<rect x="418" y="90" width="20" height="20" fill="#E2E9FE"/>
<rect x="718" y="90" width="20" height="20" fill="#E2E9FE"/>
<rect x="88" y="90" width="20" height="20" fill="#E2E9FE"/>
<rect x="388" y="90" width="20" height="20" fill="#E2E9FE"/>
<rect x="688" y="90" width="20" height="20" fill="#E2E9FE"/>
<rect x="58" width="20" height="20" fill="#E2E9FE"/>
<rect x="358" width="20" height="20" fill="#E2E9FE"/>
<rect x="658" width="20" height="20" fill="#E2E9FE"/>
<rect x="28" width="20" height="20" fill="#E2E9FE"/>
<rect x="328" width="20" height="20" fill="#E2E9FE"/>
<rect x="628" width="20" height="20" fill="#E2E9FE"/>
<rect x="-2" width="20" height="20" fill="#E2E9FE"/>
<rect x="298" width="20" height="20" fill="#E2E9FE"/>
<rect x="598" width="20" height="20" fill="#E2E9FE"/>
<rect x="268" width="20" height="20" fill="#E2E9FE"/>
<rect x="568" width="20" height="20" fill="#E2E9FE"/>
<rect x="238" width="20" height="20" fill="#E2E9FE"/>
<rect x="538" width="20" height="20" fill="#E2E9FE"/>
<rect x="208" width="20" height="20" fill="#E2E9FE"/>
<rect x="508" width="20" height="20" fill="#E2E9FE"/>
<rect x="178" width="20" height="20" fill="#E2E9FE"/>
<rect x="478" width="20" height="20" fill="#E2E9FE"/>
<rect x="778" width="20" height="20" fill="#E2E9FE"/>
<rect x="148" width="20" height="20" fill="#E2E9FE"/>
<rect x="448" width="20" height="20" fill="#E2E9FE"/>
<rect x="748" width="20" height="20" fill="#E2E9FE"/>
<rect x="118" width="20" height="20" fill="#E2E9FE"/>
<rect x="418" width="20" height="20" fill="#E2E9FE"/>
<rect x="718" width="20" height="20" fill="#E2E9FE"/>
<rect x="88" width="20" height="20" fill="#E2E9FE"/>
<rect x="388" width="20" height="20" fill="#E2E9FE"/>
<rect x="688" width="20" height="20" fill="#E2E9FE"/>
<rect x="268" y="530" width="20" height="20" transform="rotate(90 268 530)" fill="#E2E9FE"/>
<rect x="268" y="500" width="20" height="20" transform="rotate(90 268 500)" fill="#E2E9FE"/>
<rect x="268" y="470" width="20" height="20" transform="rotate(90 268 470)" fill="#E2E9FE"/>
<rect x="268" y="440" width="20" height="20" transform="rotate(90 268 440)" fill="#E2E9FE"/>
<rect x="268" y="410" width="20" height="20" transform="rotate(90 268 410)" fill="#E2E9FE"/>
<rect x="268" y="620" width="20" height="20" transform="rotate(90 268 620)" fill="#E2E9FE"/>
<rect x="268" y="590" width="20" height="20" transform="rotate(90 268 590)" fill="#E2E9FE"/>
<rect x="268" y="560" width="20" height="20" transform="rotate(90 268 560)" fill="#E2E9FE"/>
<rect x="178" y="530" width="20" height="20" transform="rotate(90 178 530)" fill="#E2E9FE"/>
<rect x="178" y="500" width="20" height="20" transform="rotate(90 178 500)" fill="#E2E9FE"/>
<rect x="178" y="470" width="20" height="20" transform="rotate(90 178 470)" fill="#E2E9FE"/>
<rect x="178" y="440" width="20" height="20" transform="rotate(90 178 440)" fill="#E2E9FE"/>
<rect x="178" y="410" width="20" height="20" transform="rotate(90 178 410)" fill="#E2E9FE"/>
<rect x="178" y="620" width="20" height="20" transform="rotate(90 178 620)" fill="#E2E9FE"/>
<rect x="178" y="590" width="20" height="20" transform="rotate(90 178 590)" fill="#E2E9FE"/>
<rect x="178" y="560" width="20" height="20" transform="rotate(90 178 560)" fill="#E2E9FE"/>
<rect x="238" y="530" width="20" height="20" transform="rotate(90 238 530)" fill="#E2E9FE"/>
<rect x="238" y="500" width="20" height="20" transform="rotate(90 238 500)" fill="#E2E9FE"/>
<rect x="238" y="470" width="20" height="20" transform="rotate(90 238 470)" fill="#E2E9FE"/>
<rect x="238" y="440" width="20" height="20" transform="rotate(90 238 440)" fill="#E2E9FE"/>
<rect x="238" y="410" width="20" height="20" transform="rotate(90 238 410)" fill="#E2E9FE"/>
<rect x="238" y="620" width="20" height="20" transform="rotate(90 238 620)" fill="#E2E9FE"/>
<rect x="238" y="590" width="20" height="20" transform="rotate(90 238 590)" fill="#E2E9FE"/>
<rect x="238" y="560" width="20" height="20" transform="rotate(90 238 560)" fill="#E2E9FE"/>
<rect x="208" y="530" width="20" height="20" transform="rotate(90 208 530)" fill="#E2E9FE"/>
<rect x="208" y="500" width="20" height="20" transform="rotate(90 208 500)" fill="#E2E9FE"/>
<rect x="208" y="470" width="20" height="20" transform="rotate(90 208 470)" fill="#E2E9FE"/>
<rect x="208" y="440" width="20" height="20" transform="rotate(90 208 440)" fill="#E2E9FE"/>
<rect x="208" y="410" width="20" height="20" transform="rotate(90 208 410)" fill="#E2E9FE"/>
<rect x="208" y="620" width="20" height="20" transform="rotate(90 208 620)" fill="#E2E9FE"/>
<rect x="208" y="590" width="20" height="20" transform="rotate(90 208 590)" fill="#E2E9FE"/>
<rect x="208" y="560" width="20" height="20" transform="rotate(90 208 560)" fill="#E2E9FE"/>
<rect x="298" y="530" width="20" height="20" transform="rotate(90 298 530)" fill="#E2E9FE"/>
<rect x="298" y="500" width="20" height="20" transform="rotate(90 298 500)" fill="#E2E9FE"/>
<rect x="298" y="470" width="20" height="20" transform="rotate(90 298 470)" fill="#E2E9FE"/>
<rect x="298" y="440" width="20" height="20" transform="rotate(90 298 440)" fill="#E2E9FE"/>
<rect x="298" y="410" width="20" height="20" transform="rotate(90 298 410)" fill="#E2E9FE"/>
<rect x="298" y="620" width="20" height="20" transform="rotate(90 298 620)" fill="#E2E9FE"/>
<rect x="298" y="590" width="20" height="20" transform="rotate(90 298 590)" fill="#E2E9FE"/>
<rect x="298" y="560" width="20" height="20" transform="rotate(90 298 560)" fill="#E2E9FE"/>
</svg>
