<svg width="801" height="640" viewBox="0 0 801 640" fill="none" xmlns="http://www.w3.org/2000/svg">
<rect x="60.1328" y="30" width="20" height="20" fill="#E2E9FE"/>
<rect x="360.133" y="30" width="20" height="20" fill="#E2E9FE"/>
<rect x="660.133" y="30" width="20" height="20" fill="#E2E9FE"/>
<rect x="30.1328" y="30" width="20" height="20" fill="#E2E9FE"/>
<rect x="330.133" y="30" width="20" height="20" fill="#E2E9FE"/>
<rect x="630.133" y="30" width="20" height="20" fill="#E2E9FE"/>
<rect x="0.132812" y="30" width="20" height="20" fill="#E2E9FE"/>
<rect x="300.133" y="30" width="20" height="20" fill="#E2E9FE"/>
<rect x="600.133" y="30" width="20" height="20" fill="#E2E9FE"/>
<rect x="270.133" y="30" width="20" height="20" fill="#E2E9FE"/>
<rect x="570.133" y="30" width="20" height="20" fill="#E2E9FE"/>
<rect x="240.133" y="30" width="20" height="20" fill="#E2E9FE"/>
<rect x="540.133" y="30" width="20" height="20" fill="#E2E9FE"/>
<rect x="210.133" y="30" width="20" height="20" fill="#E2E9FE"/>
<rect x="510.133" y="30" width="20" height="20" fill="#E2E9FE"/>
<rect x="180.133" y="30" width="20" height="20" fill="#E2E9FE"/>
<rect x="480.133" y="30" width="20" height="20" fill="#E2E9FE"/>
<rect x="780.133" y="30" width="20" height="20" fill="#E2E9FE"/>
<rect x="150.133" y="30" width="20" height="20" fill="#E2E9FE"/>
<rect x="450.133" y="30" width="20" height="20" fill="#E2E9FE"/>
<rect x="750.133" y="30" width="20" height="20" fill="#E2E9FE"/>
<rect x="120.133" y="30" width="20" height="20" fill="#E2E9FE"/>
<rect x="420.133" y="30" width="20" height="20" fill="#E2E9FE"/>
<rect x="720.133" y="30" width="20" height="20" fill="#E2E9FE"/>
<rect x="90.1328" y="30" width="20" height="20" fill="#E2E9FE"/>
<rect x="390.133" y="30" width="20" height="20" fill="#E2E9FE"/>
<rect x="690.133" y="30" width="20" height="20" fill="#E2E9FE"/>
<rect x="60.1328" y="60" width="20" height="20" fill="#E2E9FE"/>
<rect x="360.133" y="60" width="20" height="20" fill="#E2E9FE"/>
<rect x="660.133" y="60" width="20" height="20" fill="#E2E9FE"/>
<rect x="30.1328" y="60" width="20" height="20" fill="#E2E9FE"/>
<rect x="330.133" y="60" width="20" height="20" fill="#E2E9FE"/>
<rect x="630.133" y="60" width="20" height="20" fill="#E2E9FE"/>
<rect x="0.132812" y="60" width="20" height="20" fill="#E2E9FE"/>
<rect x="300.133" y="60" width="20" height="20" fill="#E2E9FE"/>
<rect x="600.133" y="60" width="20" height="20" fill="#E2E9FE"/>
<rect x="270.133" y="60" width="20" height="20" fill="#E2E9FE"/>
<rect x="570.133" y="60" width="20" height="20" fill="#E2E9FE"/>
<rect x="240.133" y="60" width="20" height="20" fill="#E2E9FE"/>
<rect x="540.133" y="60" width="20" height="20" fill="#E2E9FE"/>
<rect x="210.133" y="60" width="20" height="20" fill="#E2E9FE"/>
<rect x="510.133" y="60" width="20" height="20" fill="#E2E9FE"/>
<rect x="180.133" y="60" width="20" height="20" fill="#E2E9FE"/>
<rect x="480.133" y="60" width="20" height="20" fill="#E2E9FE"/>
<rect x="780.133" y="60" width="20" height="20" fill="#E2E9FE"/>
<rect x="150.133" y="60" width="20" height="20" fill="#E2E9FE"/>
<rect x="450.133" y="60" width="20" height="20" fill="#E2E9FE"/>
<rect x="750.133" y="60" width="20" height="20" fill="#E2E9FE"/>
<rect x="120.133" y="60" width="20" height="20" fill="#E2E9FE"/>
<rect x="420.133" y="60" width="20" height="20" fill="#E2E9FE"/>
<rect x="720.133" y="60" width="20" height="20" fill="#E2E9FE"/>
<rect x="90.1328" y="60" width="20" height="20" fill="#E2E9FE"/>
<rect x="390.133" y="60" width="20" height="20" fill="#E2E9FE"/>
<rect x="690.133" y="60" width="20" height="20" fill="#E2E9FE"/>
<rect x="60.1328" y="90" width="20" height="20" fill="#E2E9FE"/>
<rect x="360.133" y="90" width="20" height="20" fill="#E2E9FE"/>
<rect x="660.133" y="90" width="20" height="20" fill="#E2E9FE"/>
<rect x="30.1328" y="90" width="20" height="20" fill="#E2E9FE"/>
<rect x="330.133" y="90" width="20" height="20" fill="#E2E9FE"/>
<rect x="630.133" y="90" width="20" height="20" fill="#E2E9FE"/>
<rect x="0.132812" y="90" width="20" height="20" fill="#E2E9FE"/>
<rect x="300.133" y="90" width="20" height="20" fill="#E2E9FE"/>
<rect x="600.133" y="90" width="20" height="20" fill="#E2E9FE"/>
<rect x="270.133" y="90" width="20" height="20" fill="#E2E9FE"/>
<rect x="570.133" y="90" width="20" height="20" fill="#E2E9FE"/>
<rect x="240.133" y="90" width="20" height="20" fill="#E2E9FE"/>
<rect x="540.133" y="90" width="20" height="20" fill="#E2E9FE"/>
<rect x="210.133" y="90" width="20" height="20" fill="#E2E9FE"/>
<rect x="510.133" y="90" width="20" height="20" fill="#E2E9FE"/>
<rect x="180.133" y="90" width="20" height="20" fill="#E2E9FE"/>
<rect x="480.133" y="90" width="20" height="20" fill="#E2E9FE"/>
<rect x="780.133" y="90" width="20" height="20" fill="#E2E9FE"/>
<rect x="150.133" y="90" width="20" height="20" fill="#E2E9FE"/>
<rect x="450.133" y="90" width="20" height="20" fill="#E2E9FE"/>
<rect x="750.133" y="90" width="20" height="20" fill="#E2E9FE"/>
<rect x="120.133" y="90" width="20" height="20" fill="#E2E9FE"/>
<rect x="420.133" y="90" width="20" height="20" fill="#E2E9FE"/>
<rect x="720.133" y="90" width="20" height="20" fill="#E2E9FE"/>
<rect x="90.1328" y="90" width="20" height="20" fill="#E2E9FE"/>
<rect x="390.133" y="90" width="20" height="20" fill="#E2E9FE"/>
<rect x="690.133" y="90" width="20" height="20" fill="#E2E9FE"/>
<rect x="60.1328" width="20" height="20" fill="#E2E9FE"/>
<rect x="360.133" width="20" height="20" fill="#E2E9FE"/>
<rect x="660.133" width="20" height="20" fill="#E2E9FE"/>
<rect x="30.1328" width="20" height="20" fill="#E2E9FE"/>
<rect x="330.133" width="20" height="20" fill="#E2E9FE"/>
<rect x="630.133" width="20" height="20" fill="#E2E9FE"/>
<rect x="0.132812" width="20" height="20" fill="#E2E9FE"/>
<rect x="300.133" width="20" height="20" fill="#E2E9FE"/>
<rect x="600.133" width="20" height="20" fill="#E2E9FE"/>
<rect x="270.133" width="20" height="20" fill="#E2E9FE"/>
<rect x="570.133" width="20" height="20" fill="#E2E9FE"/>
<rect x="240.133" width="20" height="20" fill="#E2E9FE"/>
<rect x="540.133" width="20" height="20" fill="#E2E9FE"/>
<rect x="210.133" width="20" height="20" fill="#E2E9FE"/>
<rect x="510.133" width="20" height="20" fill="#E2E9FE"/>
<rect x="180.133" width="20" height="20" fill="#E2E9FE"/>
<rect x="480.133" width="20" height="20" fill="#E2E9FE"/>
<rect x="780.133" width="20" height="20" fill="#E2E9FE"/>
<rect x="150.133" width="20" height="20" fill="#E2E9FE"/>
<rect x="450.133" width="20" height="20" fill="#E2E9FE"/>
<rect x="750.133" width="20" height="20" fill="#E2E9FE"/>
<rect x="120.133" width="20" height="20" fill="#E2E9FE"/>
<rect x="420.133" width="20" height="20" fill="#E2E9FE"/>
<rect x="720.133" width="20" height="20" fill="#E2E9FE"/>
<rect x="90.1328" width="20" height="20" fill="#E2E9FE"/>
<rect x="390.133" width="20" height="20" fill="#E2E9FE"/>
<rect x="690.133" width="20" height="20" fill="#E2E9FE"/>
<rect x="270.133" y="530" width="20" height="20" transform="rotate(90 270.133 530)" fill="#E2E9FE"/>
<rect x="270.133" y="500" width="20" height="20" transform="rotate(90 270.133 500)" fill="#E2E9FE"/>
<rect x="270.133" y="470" width="20" height="20" transform="rotate(90 270.133 470)" fill="#E2E9FE"/>
<rect x="270.133" y="440" width="20" height="20" transform="rotate(90 270.133 440)" fill="#E2E9FE"/>
<rect x="270.133" y="410" width="20" height="20" transform="rotate(90 270.133 410)" fill="#E2E9FE"/>
<rect x="270.133" y="620" width="20" height="20" transform="rotate(90 270.133 620)" fill="#E2E9FE"/>
<rect x="270.133" y="590" width="20" height="20" transform="rotate(90 270.133 590)" fill="#E2E9FE"/>
<rect x="270.133" y="560" width="20" height="20" transform="rotate(90 270.133 560)" fill="#E2E9FE"/>
<rect x="180.133" y="530" width="20" height="20" transform="rotate(90 180.133 530)" fill="#E2E9FE"/>
<rect x="180.133" y="500" width="20" height="20" transform="rotate(90 180.133 500)" fill="#E2E9FE"/>
<rect x="180.133" y="470" width="20" height="20" transform="rotate(90 180.133 470)" fill="#E2E9FE"/>
<rect x="180.133" y="440" width="20" height="20" transform="rotate(90 180.133 440)" fill="#E2E9FE"/>
<rect x="180.133" y="410" width="20" height="20" transform="rotate(90 180.133 410)" fill="#E2E9FE"/>
<rect x="180.133" y="620" width="20" height="20" transform="rotate(90 180.133 620)" fill="#E2E9FE"/>
<rect x="180.133" y="590" width="20" height="20" transform="rotate(90 180.133 590)" fill="#E2E9FE"/>
<rect x="180.133" y="560" width="20" height="20" transform="rotate(90 180.133 560)" fill="#E2E9FE"/>
<rect x="240.133" y="530" width="20" height="20" transform="rotate(90 240.133 530)" fill="#E2E9FE"/>
<rect x="240.133" y="500" width="20" height="20" transform="rotate(90 240.133 500)" fill="#E2E9FE"/>
<rect x="240.133" y="470" width="20" height="20" transform="rotate(90 240.133 470)" fill="#E2E9FE"/>
<rect x="240.133" y="440" width="20" height="20" transform="rotate(90 240.133 440)" fill="#E2E9FE"/>
<rect x="240.133" y="410" width="20" height="20" transform="rotate(90 240.133 410)" fill="#E2E9FE"/>
<rect x="240.133" y="620" width="20" height="20" transform="rotate(90 240.133 620)" fill="#E2E9FE"/>
<rect x="240.133" y="590" width="20" height="20" transform="rotate(90 240.133 590)" fill="#E2E9FE"/>
<rect x="240.133" y="560" width="20" height="20" transform="rotate(90 240.133 560)" fill="#E2E9FE"/>
<rect x="210.133" y="530" width="20" height="20" transform="rotate(90 210.133 530)" fill="#E2E9FE"/>
<rect x="210.133" y="500" width="20" height="20" transform="rotate(90 210.133 500)" fill="#E2E9FE"/>
<rect x="210.133" y="470" width="20" height="20" transform="rotate(90 210.133 470)" fill="#E2E9FE"/>
<rect x="210.133" y="440" width="20" height="20" transform="rotate(90 210.133 440)" fill="#E2E9FE"/>
<rect x="210.133" y="410" width="20" height="20" transform="rotate(90 210.133 410)" fill="#E2E9FE"/>
<rect x="210.133" y="620" width="20" height="20" transform="rotate(90 210.133 620)" fill="#E2E9FE"/>
<rect x="210.133" y="590" width="20" height="20" transform="rotate(90 210.133 590)" fill="#E2E9FE"/>
<rect x="210.133" y="560" width="20" height="20" transform="rotate(90 210.133 560)" fill="#E2E9FE"/>
<rect x="300.133" y="530" width="20" height="20" transform="rotate(90 300.133 530)" fill="#E2E9FE"/>
<rect x="300.133" y="500" width="20" height="20" transform="rotate(90 300.133 500)" fill="#E2E9FE"/>
<rect x="300.133" y="470" width="20" height="20" transform="rotate(90 300.133 470)" fill="#E2E9FE"/>
<rect x="300.133" y="440" width="20" height="20" transform="rotate(90 300.133 440)" fill="#E2E9FE"/>
<rect x="300.133" y="410" width="20" height="20" transform="rotate(90 300.133 410)" fill="#E2E9FE"/>
<rect x="300.133" y="620" width="20" height="20" transform="rotate(90 300.133 620)" fill="#E2E9FE"/>
<rect x="300.133" y="590" width="20" height="20" transform="rotate(90 300.133 590)" fill="#E2E9FE"/>
<rect x="300.133" y="560" width="20" height="20" transform="rotate(90 300.133 560)" fill="#E2E9FE"/>
</svg>
